<?xml version="1.0" encoding="UTF-8"?>
<svg id="Layer_1" data-name="Layer 1" xmlns="http://www.w3.org/2000/svg" viewBox="0 0 293.35 225.63">
  <defs>
    <style>
      .cls-1 {
        fill: #fff;
      }

      .cls-2, .cls-3 {
        fill: #181718;
      }

      .cls-4 {
        fill: #7d807d;
      }

      .cls-4, .cls-5, .cls-3 {
        fill-rule: evenodd;
      }

      .cls-5, .cls-6 {
        fill: #ee3f23;
      }
    </style>
  </defs>
  <rect class="cls-1" width="293.35" height="225.63"/>
  <g>
    <path class="cls-2" d="M42.23,180.48v-4.21h-3.55v4.21h-3.85v-11.41h3.85v4.04h3.55v-4.04h3.85v11.41h-3.85Z"/>
    <path class="cls-2" d="M46.69,180.48l4.99-11.41h3.78l4.99,11.41h-3.98l-.77-1.99h-4.34l-.77,1.99h-3.91Zm5.74-4.76h2.22l-1.11-2.87-1.11,2.87Z"/>
    <g>
      <path class="cls-2" d="M62.09,180.48l-3.65-11.41h3.96l1.99,6.49,2.1-6.49h3.54l1.99,6.57,2.1-6.57h3.65l-3.65,11.41h-4.12l-1.84-6.1-1.94,6.1h-4.12Z"/>
      <path class="cls-2" d="M78.72,180.48v-11.41h3.78v4.14l3.75-4.14h4.19l-4.56,5.02,4.79,6.39h-4.45l-2.85-3.78-.86,.96v2.82h-3.78Z"/>
      <path class="cls-2" d="M91.04,180.48v-11.41h3.85v11.41h-3.85Z"/>
      <path class="cls-2" d="M96.6,180.48v-11.41h3.16l4.34,5.18v-5.18h3.75v11.41h-3.16l-4.34-5.18v5.18h-3.75Z"/>
      <path class="cls-2" d="M113.81,180.74c-.96,0-1.88-.11-2.77-.33-.89-.22-1.62-.5-2.2-.85l1.24-2.8c.54,.32,1.15,.57,1.82,.76,.67,.19,1.32,.29,1.95,.29,.54,0,.93-.05,1.15-.16,.22-.11,.33-.26,.33-.46,0-.21-.11-.37-.34-.49-.23-.12-.53-.22-.9-.3-.38-.08-.79-.17-1.23-.26-.45-.09-.89-.21-1.34-.37-.45-.15-.86-.35-1.24-.6-.38-.25-.68-.58-.9-.99-.23-.41-.34-.92-.34-1.52,0-.71,.2-1.35,.59-1.93,.4-.58,.99-1.05,1.78-1.39,.79-.35,1.77-.52,2.94-.52,.77,0,1.53,.08,2.28,.24,.75,.16,1.42,.41,2.02,.75l-1.16,2.79c-1.12-.57-2.18-.85-3.18-.85-.57,0-.95,.07-1.17,.21-.21,.14-.32,.31-.32,.51s.11,.35,.34,.46c.23,.11,.53,.21,.9,.29,.37,.08,.79,.16,1.24,.24,.45,.09,.9,.21,1.34,.36,.45,.15,.86,.35,1.23,.6s.68,.58,.9,.98c.23,.4,.34,.9,.34,1.5,0,.7-.2,1.33-.59,1.92-.4,.58-.99,1.05-1.77,1.4s-1.77,.53-2.95,.53Z"/>
    </g>
    <path class="cls-6" d="M130.23,180.74c-.91,0-1.76-.14-2.53-.43-.78-.29-1.45-.7-2.02-1.23s-1.01-1.16-1.33-1.89c-.32-.73-.47-1.53-.47-2.41s.16-1.68,.47-2.41c.32-.73,.76-1.36,1.33-1.89,.57-.53,1.24-.94,2.02-1.23,.78-.29,1.62-.43,2.53-.43,1.12,0,2.11,.2,2.97,.59,.86,.39,1.58,.96,2.14,1.7l-2.43,2.17c-.34-.42-.71-.75-1.12-.99-.41-.23-.87-.35-1.38-.35-.79,0-1.44,.26-1.93,.77-.49,.52-.74,1.21-.74,2.08s.25,1.56,.74,2.08c.49,.52,1.14,.77,1.93,.77,.51,0,.97-.12,1.38-.35s.78-.56,1.12-.99l2.43,2.17c-.57,.73-1.28,1.29-2.14,1.69-.86,.4-1.86,.59-2.97,.59Z"/>
    <g>
      <path class="cls-6" d="M141.41,180.74c-.92,0-1.78-.15-2.57-.44-.79-.29-1.47-.71-2.05-1.25-.58-.54-1.02-1.17-1.34-1.9-.32-.73-.48-1.52-.48-2.38s.16-1.67,.48-2.39c.32-.72,.77-1.35,1.34-1.89,.58-.54,1.26-.95,2.05-1.25,.79-.29,1.64-.44,2.57-.44s1.79,.15,2.58,.44,1.46,.71,2.04,1.25c.58,.54,1.02,1.17,1.34,1.89,.32,.72,.48,1.52,.48,2.39s-.16,1.65-.48,2.38c-.32,.73-.77,1.36-1.34,1.9-.58,.54-1.26,.95-2.04,1.25-.78,.29-1.64,.44-2.58,.44Zm0-3.11c.48,0,.91-.11,1.3-.34,.39-.23,.69-.56,.92-.99,.23-.43,.34-.94,.34-1.52s-.11-1.11-.34-1.53c-.23-.42-.54-.75-.92-.98-.39-.23-.82-.34-1.3-.34s-.9,.11-1.29,.34c-.39,.23-.7,.55-.93,.98-.23,.42-.34,.93-.34,1.53s.11,1.09,.34,1.52c.23,.43,.54,.76,.93,.99,.39,.23,.82,.34,1.29,.34Z"/>
      <path class="cls-6" d="M148.96,180.48v-11.41h3.16l4.34,5.18v-5.18h3.75v11.41h-3.16l-4.34-5.18v5.18h-3.75Z"/>
      <path class="cls-6" d="M166.02,180.74c-.96,0-1.88-.11-2.77-.33-.89-.22-1.62-.5-2.2-.85l1.24-2.8c.54,.32,1.15,.57,1.82,.76s1.32,.29,1.95,.29c.54,0,.93-.05,1.15-.16,.22-.11,.33-.26,.33-.46,0-.21-.11-.37-.34-.49-.23-.12-.53-.22-.9-.3-.37-.08-.79-.17-1.23-.26-.45-.09-.89-.21-1.34-.37-.45-.15-.86-.35-1.24-.6-.37-.25-.68-.58-.9-.99-.23-.41-.34-.92-.34-1.52,0-.71,.2-1.35,.59-1.93,.4-.58,.99-1.05,1.78-1.39,.79-.35,1.77-.52,2.94-.52,.77,0,1.53,.08,2.28,.24,.75,.16,1.42,.41,2.02,.75l-1.16,2.79c-1.12-.57-2.18-.85-3.18-.85-.57,0-.95,.07-1.17,.21s-.32,.31-.32,.51,.11,.35,.34,.46c.23,.11,.53,.21,.9,.29,.37,.08,.79,.16,1.24,.24,.45,.09,.9,.21,1.34,.36,.45,.15,.86,.35,1.23,.6,.38,.25,.68,.58,.9,.98,.23,.4,.34,.9,.34,1.5,0,.7-.2,1.33-.6,1.92s-.99,1.05-1.77,1.4-1.77,.53-2.95,.53Z"/>
      <path class="cls-6" d="M174.66,180.48v-8.43h-3.34v-2.98h10.53v2.98h-3.34v8.43h-3.85Z"/>
      <path class="cls-6" d="M182.55,180.48v-11.41h5.33c1.75,0,3.08,.39,3.99,1.16,.91,.77,1.37,1.82,1.37,3.15,0,.83-.19,1.54-.56,2.15-.37,.61-.9,1.09-1.59,1.43l2.4,3.52h-4.11l-1.94-2.87h-1.04v2.87h-3.85Zm3.85-5.77h1.4c.53,0,.93-.12,1.18-.36,.26-.24,.38-.56,.38-.98s-.13-.74-.38-.98c-.26-.24-.65-.36-1.18-.36h-1.4v2.67Z"/>
      <path class="cls-6" d="M199.86,180.74c-1.75,0-3.11-.47-4.09-1.42-.98-.95-1.47-2.27-1.47-3.98v-6.28h3.85v6.16c0,.87,.16,1.49,.47,1.85,.32,.36,.74,.55,1.27,.55s.97-.18,1.28-.55c.31-.36,.46-.98,.46-1.85v-6.16h3.78v6.28c0,1.71-.49,3.03-1.47,3.98-.98,.95-2.34,1.42-4.09,1.42Z"/>
      <path class="cls-6" d="M212.79,180.74c-.91,0-1.76-.14-2.53-.43-.78-.29-1.45-.7-2.02-1.23-.57-.53-1.01-1.16-1.33-1.89-.32-.73-.47-1.53-.47-2.41s.16-1.68,.47-2.41c.32-.73,.76-1.36,1.33-1.89,.57-.53,1.24-.94,2.02-1.23,.78-.29,1.62-.43,2.53-.43,1.12,0,2.11,.2,2.97,.59s1.58,.96,2.14,1.7l-2.43,2.17c-.34-.42-.71-.75-1.12-.99-.41-.23-.87-.35-1.38-.35-.79,0-1.44,.26-1.93,.77-.49,.52-.74,1.21-.74,2.08s.25,1.56,.74,2.08c.49,.52,1.14,.77,1.93,.77,.51,0,.97-.12,1.38-.35s.78-.56,1.12-.99l2.43,2.17c-.57,.73-1.28,1.29-2.14,1.69-.86,.4-1.86,.59-2.97,.59Z"/>
      <path class="cls-6" d="M221.08,180.48v-8.43h-3.34v-2.98h10.53v2.98h-3.34v8.43h-3.85Z"/>
      <path class="cls-6" d="M228.97,180.48v-11.41h3.85v11.41h-3.85Z"/>
      <path class="cls-6" d="M240.36,180.74c-.92,0-1.78-.15-2.57-.44-.79-.29-1.47-.71-2.05-1.25s-1.02-1.17-1.34-1.9c-.32-.73-.48-1.52-.48-2.38s.16-1.67,.48-2.39c.32-.72,.77-1.35,1.34-1.89s1.26-.95,2.05-1.25,1.64-.44,2.57-.44,1.79,.15,2.58,.44,1.46,.71,2.04,1.25c.58,.54,1.02,1.17,1.34,1.89s.48,1.52,.48,2.39-.16,1.65-.48,2.38-.77,1.36-1.34,1.9c-.58,.54-1.25,.95-2.04,1.25-.78,.29-1.64,.44-2.58,.44Zm0-3.11c.48,0,.91-.11,1.3-.34,.39-.23,.69-.56,.92-.99,.23-.43,.34-.94,.34-1.52s-.11-1.11-.34-1.53c-.23-.42-.54-.75-.92-.98-.39-.23-.82-.34-1.3-.34s-.9,.11-1.29,.34c-.39,.23-.7,.55-.93,.98-.23,.42-.34,.93-.34,1.53s.11,1.09,.34,1.52c.23,.43,.54,.76,.93,.99,.39,.23,.82,.34,1.29,.34Z"/>
      <path class="cls-6" d="M247.91,180.48v-11.41h3.16l4.34,5.18v-5.18h3.75v11.41h-3.16l-4.34-5.18v5.18h-3.75Z"/>
    </g>
    <g>
      <path class="cls-2" d="M51.2,197.16l4.18-9.03h.43l4.18,9.03h-.48l-1.21-2.65h-5.41l-1.21,2.65h-.48Zm1.87-3.02h5.06l-2.53-5.51-2.53,5.51Z"/>
      <path class="cls-2" d="M61.75,197.16v-9.03h.36l6.41,8.25v-8.25h.44v9.03h-.36l-6.41-8.25v8.25h-.44Z"/>
      <path class="cls-2" d="M72.27,197.16v-9.03h3.48c.96,0,1.79,.19,2.51,.58,.72,.39,1.28,.92,1.68,1.6,.4,.68,.6,1.46,.6,2.34s-.2,1.66-.6,2.34c-.4,.68-.96,1.21-1.68,1.6-.72,.39-1.56,.58-2.51,.58h-3.48Zm.44-.4h3.02c.89,0,1.66-.18,2.32-.53s1.17-.84,1.52-1.46c.36-.62,.54-1.33,.54-2.13s-.18-1.51-.54-2.13c-.36-.62-.86-1.11-1.52-1.46s-1.43-.53-2.32-.53h-3.02v8.23Z"/>
      <path class="cls-2" d="M89.98,197.21c-.67,0-1.29-.11-1.87-.34-.57-.23-1.07-.55-1.5-.96s-.76-.9-.99-1.45c-.23-.56-.35-1.16-.35-1.81s.12-1.26,.35-1.81c.23-.56,.56-1.04,.99-1.45,.43-.41,.92-.73,1.5-.96,.57-.23,1.19-.34,1.87-.34s1.23,.1,1.77,.3c.55,.2,1.01,.49,1.4,.89l-.26,.3c-.41-.4-.86-.68-1.34-.84-.48-.16-1-.25-1.56-.25-.61,0-1.18,.11-1.7,.32-.52,.21-.97,.51-1.36,.88-.39,.38-.69,.82-.9,1.32-.21,.5-.32,1.05-.32,1.65s.11,1.14,.32,1.65c.21,.5,.51,.94,.9,1.32,.39,.38,.84,.67,1.36,.88,.52,.21,1.09,.32,1.7,.32,.52,0,1.01-.07,1.47-.22,.46-.15,.89-.39,1.26-.72v-3.16h.41v3.34c-.4,.39-.87,.68-1.41,.87s-1.13,.29-1.75,.29Z"/>
      <path class="cls-2" d="M96.18,197.16v-9.03h5.92v.4h-5.49v3.85h4.9v.4h-4.9v3.99h5.67v.4h-6.11Z"/>
      <path class="cls-2" d="M104.81,197.16v-9.03h.36l6.41,8.25v-8.25h.44v9.03h-.36l-6.41-8.25v8.25h-.44Z"/>
      <path class="cls-2" d="M115.33,197.16v-9.03h5.92v.4h-5.49v3.85h4.9v.4h-4.9v3.99h5.67v.4h-6.11Z"/>
      <path class="cls-2" d="M123.95,197.16v-9.03h3.14c1.13,0,2.01,.26,2.64,.79s.95,1.26,.95,2.2c0,.73-.19,1.34-.57,1.82-.38,.48-.91,.82-1.6,1.01l2.31,3.21h-.52l-2.23-3.11c-.3,.05-.63,.08-.98,.08h-2.7v3.03h-.44Zm.44-3.43h2.72c1.02,0,1.79-.23,2.33-.68,.54-.45,.81-1.09,.81-1.93s-.27-1.46-.81-1.92c-.54-.45-1.31-.68-2.33-.68h-2.72v5.2Z"/>
      <path class="cls-2" d="M131.65,197.16l4.18-9.03h.43l4.18,9.03h-.48l-1.21-2.65h-5.41l-1.21,2.65h-.48Zm1.87-3.02h5.06l-2.53-5.51-2.53,5.51Z"/>
      <path class="cls-2" d="M142.2,197.16v-9.03h.44v8.63h5.29v.4h-5.73Z"/>
      <path class="cls-2" d="M155.26,197.21c-.66,0-1.29-.12-1.88-.36-.59-.24-1.04-.54-1.35-.9l.23-.31c.29,.33,.71,.6,1.25,.83,.54,.23,1.12,.34,1.74,.34,.95,0,1.64-.19,2.08-.56,.44-.37,.66-.82,.66-1.35,0-.41-.1-.74-.31-.99-.21-.25-.48-.45-.82-.59s-.71-.26-1.12-.36c-.4-.1-.81-.2-1.21-.3-.4-.1-.78-.24-1.12-.41s-.61-.4-.81-.7c-.2-.29-.3-.68-.3-1.16,0-.4,.11-.78,.32-1.14s.55-.64,1.01-.86c.46-.22,1.04-.33,1.76-.33,.5,0,.99,.07,1.46,.22,.47,.15,.88,.35,1.21,.61l-.19,.35c-.36-.27-.76-.46-1.2-.59s-.86-.19-1.26-.19c-.91,0-1.59,.19-2.02,.57-.43,.38-.65,.83-.65,1.37,0,.42,.1,.76,.31,1.01,.21,.25,.48,.45,.82,.59s.71,.27,1.12,.37,.81,.2,1.21,.3,.78,.24,1.12,.41c.34,.17,.61,.4,.81,.68,.2,.29,.3,.67,.3,1.14,0,.4-.11,.78-.33,1.14s-.56,.64-1.03,.85c-.47,.22-1.06,.32-1.79,.32Z"/>
      <path class="cls-2" d="M164.24,197.21c-1.1,0-1.97-.32-2.6-.96-.63-.64-.95-1.61-.95-2.9v-5.23h.44v5.21c0,1.17,.27,2.04,.81,2.61s1.31,.86,2.3,.86,1.76-.29,2.3-.86c.54-.57,.81-1.44,.81-2.61v-5.21h.43v5.23c0,1.29-.32,2.26-.95,2.9-.63,.64-1.5,.96-2.59,.96Z"/>
      <path class="cls-2" d="M171.01,197.16v-9.03h3.14c1.13,0,2.01,.26,2.64,.79,.63,.53,.95,1.26,.95,2.2s-.32,1.68-.95,2.21c-.63,.53-1.51,.79-2.64,.79h-2.7v3.03h-.44Zm.44-3.43h2.72c1.02,0,1.79-.23,2.33-.68,.54-.45,.81-1.09,.81-1.93s-.27-1.46-.81-1.92c-.54-.45-1.31-.68-2.33-.68h-2.72v5.2Z"/>
      <path class="cls-2" d="M180.2,197.16v-9.03h3.14c1.13,0,2.01,.26,2.64,.79,.63,.53,.95,1.26,.95,2.2s-.32,1.68-.95,2.21c-.63,.53-1.51,.79-2.64,.79h-2.7v3.03h-.44Zm.44-3.43h2.72c1.02,0,1.79-.23,2.33-.68,.54-.45,.81-1.09,.81-1.93s-.27-1.46-.81-1.92c-.54-.45-1.31-.68-2.33-.68h-2.72v5.2Z"/>
      <path class="cls-2" d="M189.39,197.16v-9.03h.44v8.63h5.29v.4h-5.73Z"/>
      <path class="cls-2" d="M196.9,197.16v-9.03h.44v9.03h-.44Z"/>
      <path class="cls-2" d="M200.64,197.16v-9.03h5.92v.4h-5.49v3.85h4.9v.4h-4.9v3.99h5.67v.4h-6.1Z"/>
      <path class="cls-2" d="M211.55,197.21c-.66,0-1.29-.12-1.88-.36-.59-.24-1.04-.54-1.35-.9l.23-.31c.29,.33,.71,.6,1.25,.83,.54,.23,1.12,.34,1.74,.34,.95,0,1.64-.19,2.08-.56,.44-.37,.66-.82,.66-1.35,0-.41-.1-.74-.31-.99-.21-.25-.48-.45-.82-.59s-.71-.26-1.12-.36c-.4-.1-.81-.2-1.21-.3-.4-.1-.78-.24-1.12-.41s-.61-.4-.81-.7c-.2-.29-.3-.68-.3-1.16,0-.4,.11-.78,.32-1.14s.55-.64,1.01-.86c.46-.22,1.04-.33,1.76-.33,.5,0,.99,.07,1.46,.22,.47,.15,.88,.35,1.21,.61l-.19,.35c-.36-.27-.76-.46-1.2-.59s-.86-.19-1.26-.19c-.91,0-1.59,.19-2.02,.57-.43,.38-.65,.83-.65,1.37,0,.42,.1,.76,.31,1.01,.21,.25,.48,.45,.82,.59s.71,.27,1.12,.37,.81,.2,1.21,.3,.78,.24,1.12,.41c.34,.17,.61,.4,.81,.68,.2,.29,.3,.67,.3,1.14,0,.4-.11,.78-.33,1.14s-.56,.64-1.03,.85c-.47,.22-1.06,.32-1.79,.32Z"/>
      <path class="cls-2" d="M220.32,197.16v-9.03h.44v8.63h5.29v.4h-5.73Z"/>
      <path class="cls-2" d="M229.55,197.16v-8.64h-3.32v-.4h7.06v.4h-3.32v8.64h-.43Z"/>
      <path class="cls-2" d="M235,197.16v-9.03h3.48c.96,0,1.79,.19,2.51,.58,.72,.39,1.28,.92,1.68,1.6,.4,.68,.6,1.46,.6,2.34s-.2,1.66-.6,2.34c-.4,.68-.96,1.21-1.68,1.6-.72,.39-1.55,.58-2.51,.58h-3.48Zm.44-.4h3.02c.89,0,1.66-.18,2.32-.53,.66-.35,1.17-.84,1.52-1.46,.36-.62,.54-1.33,.54-2.13s-.18-1.51-.54-2.13c-.36-.62-.86-1.11-1.52-1.46-.66-.35-1.43-.53-2.32-.53h-3.02v8.23Z"/>
    </g>
    <rect class="cls-2" x="245.6" y="192.46" width="13.85" height="1.29"/>
    <rect class="cls-2" x="33.9" y="192.46" width="13.84" height="1.29"/>
    <polygon class="cls-3" points="131.62 57.27 176.08 36.61 188.82 45.26 188.82 128.89 170.56 134.42 170.07 45.74 136.91 61.84 137.87 71.93 131.62 72.65 131.62 57.27"/>
    <polygon class="cls-2" points="194.59 36.61 203.96 26.75 203.96 137.06 143.88 159.65 88.37 138.74 97.01 131.3 145.49 148.84 193.39 130.1 194.59 36.61"/>
    <polygon class="cls-5" points="111.91 80.59 156.14 59.68 168.87 68.33 168.87 136.58 151.57 143.31 149.65 69.29 116.96 83.95 116.96 93.08 111.91 95.25 111.91 80.59"/>
    <polygon class="cls-4" points="88.36 125.52 95.81 128.17 95.81 107.74 129.46 91.4 129.46 139.47 143.64 145.95 148.21 144.27 148.21 89.72 134.99 82.03 88.36 102.46 88.36 125.52"/>
  </g>
</svg>