<?xml version="1.0" encoding="UTF-8"?>
<svg id="Layer_1" data-name="Layer 1" xmlns="http://www.w3.org/2000/svg" viewBox="0 0 293.35 225.63">
  <defs>
    <style>
      .cls-1, .cls-2 {
        fill: #181718;
      }

      .cls-3 {
        fill: #7d807d;
      }

      .cls-3, .cls-4, .cls-2 {
        fill-rule: evenodd;
      }

      .cls-4, .cls-5 {
        fill: #ee3f23;
      }
    </style>
  </defs>
  <path class="cls-1" d="M10.55,201.16v-5.47H5.92v5.47H.92v-14.85H5.92v5.26h4.63v-5.26h5.01v14.85h-5.01Z"/>
  <path class="cls-1" d="M16.36,201.16l6.49-14.85h4.92l6.49,14.85h-5.18l-1-2.59h-5.64l-1,2.59h-5.09Zm7.47-6.2h2.89l-1.44-3.73-1.44,3.73Z"/>
  <g>
    <path class="cls-1" d="M36.41,201.16l-4.75-14.85h5.16l2.59,8.45,2.74-8.45h4.6l2.59,8.55,2.74-8.55h4.75l-4.75,14.85h-5.37l-2.4-7.94-2.53,7.94h-5.37Z"/>
    <path class="cls-1" d="M58.06,201.16v-14.85h4.92v5.39l4.88-5.39h5.45l-5.94,6.54,6.24,8.32h-5.79l-3.71-4.92-1.12,1.25v3.67h-4.92Z"/>
    <path class="cls-1" d="M74.1,201.16v-14.85h5.01v14.85h-5.01Z"/>
    <path class="cls-1" d="M81.34,201.16v-14.85h4.12l5.64,6.75v-6.75h4.88v14.85h-4.12l-5.64-6.75v6.75h-4.88Z"/>
    <path class="cls-1" d="M103.75,201.5c-1.24,0-2.45-.14-3.61-.42-1.16-.28-2.12-.65-2.86-1.1l1.61-3.65c.71,.41,1.5,.74,2.37,.99,.87,.25,1.72,.37,2.54,.37,.71,0,1.21-.07,1.5-.21,.29-.14,.43-.34,.43-.59,0-.27-.15-.48-.45-.64-.3-.16-.69-.29-1.18-.39-.49-.11-1.02-.22-1.6-.34-.58-.12-1.16-.28-1.75-.48-.59-.2-1.12-.46-1.61-.78-.49-.32-.88-.75-1.18-1.28-.3-.53-.45-1.19-.45-1.98,0-.92,.26-1.76,.77-2.52,.52-.76,1.29-1.36,2.31-1.81,1.03-.45,2.3-.68,3.83-.68,1,0,1.99,.11,2.97,.32,.98,.21,1.85,.54,2.63,.98l-1.51,3.63c-1.46-.74-2.84-1.1-4.14-1.1-.74,0-1.24,.09-1.52,.28-.28,.18-.41,.4-.41,.66s.15,.46,.45,.6c.3,.15,.69,.27,1.18,.37,.49,.1,1.03,.21,1.61,.32,.59,.11,1.17,.27,1.75,.47,.58,.2,1.11,.46,1.6,.78s.88,.75,1.18,1.27c.3,.52,.45,1.17,.45,1.95,0,.91-.26,1.74-.77,2.49-.52,.76-1.28,1.37-2.3,1.82s-2.3,.69-3.84,.69Z"/>
  </g>
  <path class="cls-5" d="M125.12,201.5c-1.19,0-2.29-.19-3.3-.56-1.01-.37-1.89-.91-2.63-1.6s-1.32-1.51-1.73-2.46c-.41-.95-.62-1.99-.62-3.14s.2-2.19,.62-3.14c.41-.95,.99-1.77,1.73-2.46,.74-.69,1.62-1.23,2.63-1.6,1.01-.37,2.11-.56,3.3-.56,1.46,0,2.75,.25,3.87,.76,1.12,.51,2.05,1.24,2.79,2.21l-3.16,2.82c-.44-.55-.92-.98-1.45-1.28-.53-.3-1.13-.46-1.79-.46-1.03,0-1.87,.34-2.51,1.01-.64,.67-.97,1.57-.97,2.71s.32,2.03,.97,2.71c.64,.67,1.48,1.01,2.51,1.01,.66,0,1.26-.15,1.79-.46s1.01-.73,1.45-1.28l3.16,2.82c-.74,.95-1.67,1.68-2.79,2.2-1.12,.52-2.42,.77-3.87,.77Z"/>
  <g>
    <path class="cls-5" d="M139.67,201.5c-1.2,0-2.32-.19-3.34-.57-1.03-.38-1.91-.92-2.66-1.62-.75-.7-1.33-1.52-1.75-2.47-.42-.95-.63-1.98-.63-3.1s.21-2.17,.63-3.11c.42-.94,1-1.76,1.75-2.46,.75-.7,1.64-1.24,2.66-1.62,1.03-.38,2.14-.57,3.34-.57s2.33,.19,3.35,.57,1.9,.92,2.65,1.62c.75,.7,1.33,1.52,1.75,2.46,.42,.94,.63,1.98,.63,3.11s-.21,2.15-.63,3.1c-.42,.95-1,1.77-1.75,2.47-.75,.7-1.63,1.24-2.65,1.62-1.02,.38-2.14,.57-3.35,.57Zm0-4.05c.62,0,1.18-.15,1.69-.45,.5-.3,.9-.73,1.2-1.28,.3-.56,.45-1.22,.45-1.98s-.15-1.44-.45-1.99c-.3-.55-.7-.98-1.2-1.27-.5-.3-1.06-.45-1.69-.45s-1.17,.15-1.68,.45c-.51,.3-.91,.72-1.21,1.27-.3,.55-.45,1.22-.45,1.99s.15,1.43,.45,1.98c.3,.56,.7,.99,1.21,1.28,.51,.3,1.07,.45,1.68,.45Z"/>
    <path class="cls-5" d="M149.5,201.16v-14.85h4.12l5.65,6.75v-6.75h4.88v14.85h-4.12l-5.64-6.75v6.75h-4.88Z"/>
    <path class="cls-5" d="M171.72,201.5c-1.24,0-2.45-.14-3.61-.42-1.16-.28-2.12-.65-2.86-1.1l1.61-3.65c.71,.41,1.5,.74,2.37,.99s1.72,.37,2.54,.37c.71,0,1.21-.07,1.5-.21,.29-.14,.43-.34,.43-.59,0-.27-.15-.48-.45-.64-.3-.16-.69-.29-1.18-.39-.49-.11-1.02-.22-1.6-.34-.58-.12-1.16-.28-1.75-.48-.59-.2-1.13-.46-1.61-.78-.49-.32-.88-.75-1.18-1.28-.3-.53-.45-1.19-.45-1.98,0-.92,.26-1.76,.77-2.52,.52-.76,1.29-1.36,2.31-1.81,1.03-.45,2.3-.68,3.83-.68,1,0,1.99,.11,2.97,.32,.98,.21,1.85,.54,2.63,.98l-1.51,3.63c-1.46-.74-2.84-1.1-4.14-1.1-.74,0-1.24,.09-1.52,.28s-.41,.4-.41,.66,.15,.46,.45,.6c.3,.15,.69,.27,1.18,.37,.49,.1,1.03,.21,1.61,.32,.59,.11,1.17,.27,1.75,.47,.58,.2,1.11,.46,1.6,.78,.49,.33,.88,.75,1.18,1.27,.3,.52,.45,1.17,.45,1.95,0,.91-.26,1.74-.77,2.49s-1.28,1.37-2.3,1.82-2.3,.69-3.84,.69Z"/>
    <path class="cls-5" d="M182.96,201.16v-10.97h-4.35v-3.88h13.71v3.88h-4.35v10.97h-5.01Z"/>
    <path class="cls-5" d="M193.23,201.16v-14.85h6.94c2.28,0,4.01,.5,5.2,1.51,1.19,1,1.78,2.37,1.78,4.1,0,1.08-.24,2.01-.73,2.8-.49,.79-1.18,1.41-2.07,1.87l3.12,4.58h-5.35l-2.53-3.73h-1.36v3.73h-5.01Zm5.01-7.51h1.82c.69,0,1.21-.16,1.54-.47,.33-.31,.5-.74,.5-1.27s-.17-.96-.5-1.27c-.33-.31-.85-.47-1.54-.47h-1.82v3.48Z"/>
    <path class="cls-5" d="M215.77,201.5c-2.28,0-4.05-.62-5.33-1.85-1.27-1.23-1.91-2.96-1.91-5.18v-8.17h5.01v8.02c0,1.13,.21,1.93,.62,2.41,.41,.47,.96,.71,1.66,.71s1.26-.24,1.67-.71c.4-.47,.61-1.28,.61-2.41v-8.02h4.92v8.17c0,2.22-.64,3.95-1.91,5.18-1.27,1.23-3.05,1.85-5.33,1.85Z"/>
    <path class="cls-5" d="M232.6,201.5c-1.19,0-2.29-.19-3.3-.56-1.01-.37-1.89-.91-2.63-1.6-.74-.69-1.32-1.51-1.73-2.46-.41-.95-.62-1.99-.62-3.14s.21-2.19,.62-3.14c.41-.95,.99-1.77,1.73-2.46,.74-.69,1.62-1.23,2.63-1.6,1.01-.37,2.11-.56,3.3-.56,1.46,0,2.75,.25,3.87,.76s2.05,1.24,2.79,2.21l-3.16,2.82c-.44-.55-.92-.98-1.45-1.28-.53-.3-1.13-.46-1.79-.46-1.03,0-1.87,.34-2.51,1.01-.64,.67-.97,1.57-.97,2.71s.32,2.03,.97,2.71c.64,.67,1.48,1.01,2.51,1.01,.66,0,1.26-.15,1.79-.46s1.01-.73,1.45-1.28l3.16,2.82c-.74,.95-1.67,1.68-2.79,2.2-1.12,.52-2.42,.77-3.87,.77Z"/>
    <path class="cls-5" d="M243.4,201.16v-10.97h-4.35v-3.88h13.71v3.88h-4.35v10.97h-5.01Z"/>
    <path class="cls-5" d="M253.67,201.16v-14.85h5.01v14.85h-5.01Z"/>
    <path class="cls-5" d="M268.5,201.5c-1.2,0-2.32-.19-3.34-.57-1.03-.38-1.91-.92-2.66-1.62s-1.33-1.52-1.75-2.47c-.42-.95-.63-1.98-.63-3.1s.21-2.17,.63-3.11c.42-.94,1-1.76,1.75-2.46s1.64-1.24,2.66-1.62,2.14-.57,3.34-.57,2.33,.19,3.35,.57,1.9,.92,2.65,1.62c.75,.7,1.33,1.52,1.75,2.46s.63,1.98,.63,3.11-.21,2.15-.63,3.1-1,1.77-1.75,2.47c-.75,.7-1.63,1.24-2.65,1.62-1.02,.38-2.14,.57-3.35,.57Zm0-4.05c.62,0,1.18-.15,1.69-.45,.5-.3,.9-.73,1.2-1.28,.3-.56,.45-1.22,.45-1.98s-.15-1.44-.45-1.99c-.3-.55-.7-.98-1.2-1.27-.5-.3-1.07-.45-1.69-.45s-1.17,.15-1.68,.45c-.51,.3-.91,.72-1.21,1.27-.3,.55-.45,1.22-.45,1.99s.15,1.43,.45,1.98c.3,.56,.7,.99,1.21,1.28,.51,.3,1.07,.45,1.68,.45Z"/>
    <path class="cls-5" d="M278.33,201.16v-14.85h4.12l5.65,6.75v-6.75h4.88v14.85h-4.12l-5.64-6.75v6.75h-4.88Z"/>
  </g>
  <g>
    <path class="cls-1" d="M22.24,222.88l5.44-11.76h.55l5.44,11.76h-.62l-1.58-3.44h-7.04l-1.58,3.44h-.62Zm2.44-3.93h6.59l-3.29-7.18-3.29,7.18Z"/>
    <path class="cls-1" d="M35.97,222.88v-11.76h.47l8.35,10.74v-10.74h.57v11.76h-.47l-8.35-10.74v10.74h-.57Z"/>
    <path class="cls-1" d="M49.66,222.88v-11.76h4.54c1.24,0,2.33,.25,3.27,.76,.94,.5,1.66,1.2,2.18,2.08,.52,.89,.78,1.9,.78,3.04s-.26,2.16-.78,3.04c-.52,.88-1.25,1.58-2.18,2.08-.94,.5-2.02,.76-3.27,.76h-4.54Zm.57-.52h3.93c1.15,0,2.16-.23,3.02-.69s1.52-1.09,1.98-1.9c.46-.81,.7-1.73,.7-2.77s-.23-1.97-.7-2.77c-.47-.81-1.13-1.44-1.98-1.9s-1.86-.69-3.02-.69h-3.93v10.72Z"/>
    <path class="cls-1" d="M72.71,222.94c-.87,0-1.68-.15-2.43-.45-.75-.3-1.39-.71-1.95-1.25s-.98-1.17-1.29-1.89c-.3-.72-.45-1.51-.45-2.36s.15-1.64,.45-2.36c.3-.72,.73-1.35,1.29-1.89,.55-.54,1.2-.96,1.95-1.25,.74-.3,1.55-.44,2.43-.44s1.6,.13,2.31,.39c.71,.26,1.32,.64,1.82,1.16l-.34,.39c-.54-.52-1.12-.88-1.75-1.09-.63-.21-1.31-.32-2.03-.32-.8,0-1.53,.14-2.21,.41-.68,.27-1.27,.66-1.77,1.15-.5,.49-.89,1.07-1.17,1.72-.27,.65-.41,1.37-.41,2.14s.14,1.49,.41,2.14c.27,.66,.66,1.23,1.17,1.72,.5,.49,1.09,.88,1.77,1.15,.68,.28,1.41,.41,2.21,.41,.67,0,1.31-.09,1.92-.29,.6-.19,1.15-.5,1.65-.94v-4.12h.54v4.35c-.52,.5-1.13,.88-1.84,1.13s-1.47,.38-2.28,.38Z"/>
    <path class="cls-1" d="M80.8,222.88v-11.76h7.71v.52h-7.14v5.01h6.39v.52h-6.39v5.19h7.38v.52h-7.95Z"/>
    <path class="cls-1" d="M92.02,222.88v-11.76h.47l8.35,10.74v-10.74h.57v11.76h-.47l-8.35-10.74v10.74h-.57Z"/>
    <path class="cls-1" d="M105.72,222.88v-11.76h7.71v.52h-7.14v5.01h6.39v.52h-6.39v5.19h7.38v.52h-7.95Z"/>
    <path class="cls-1" d="M116.94,222.88v-11.76h4.08c1.47,0,2.61,.34,3.44,1.03s1.24,1.64,1.24,2.86c0,.95-.25,1.74-.74,2.37-.49,.63-1.19,1.06-2.08,1.31l3.01,4.18h-.67l-2.91-4.05c-.39,.07-.82,.1-1.28,.1h-3.51v3.95h-.57Zm.57-4.47h3.55c1.32,0,2.33-.29,3.03-.88,.7-.59,1.05-1.43,1.05-2.51s-.35-1.91-1.05-2.5c-.7-.59-1.71-.88-3.03-.88h-3.55v6.77Z"/>
    <path class="cls-1" d="M126.97,222.88l5.44-11.76h.55l5.44,11.76h-.62l-1.58-3.44h-7.04l-1.58,3.44h-.62Zm2.44-3.93h6.59l-3.29-7.18-3.29,7.18Z"/>
    <path class="cls-1" d="M140.7,222.88v-11.76h.57v11.24h6.89v.52h-7.46Z"/>
    <path class="cls-1" d="M157.71,222.94c-.86,0-1.68-.15-2.45-.46-.77-.31-1.35-.7-1.76-1.17l.3-.4c.38,.43,.92,.79,1.62,1.08,.7,.3,1.45,.45,2.26,.45,1.23,0,2.13-.24,2.71-.73,.57-.49,.86-1.07,.86-1.76,0-.54-.13-.97-.4-1.29-.27-.32-.62-.58-1.07-.76s-.93-.34-1.45-.47c-.53-.13-1.05-.26-1.58-.4-.53-.13-1.01-.31-1.45-.54s-.8-.53-1.06-.91c-.26-.38-.4-.88-.4-1.51,0-.53,.14-1.02,.42-1.48s.72-.83,1.31-1.12c.59-.29,1.36-.43,2.29-.43,.65,0,1.28,.1,1.9,.29,.62,.19,1.14,.45,1.58,.79l-.25,.45c-.47-.35-.99-.61-1.56-.77s-1.12-.25-1.65-.25c-1.19,0-2.06,.25-2.63,.74-.57,.49-.85,1.09-.85,1.78,0,.55,.13,.99,.4,1.31,.27,.32,.62,.58,1.07,.77s.93,.35,1.45,.48,1.05,.26,1.58,.39,1.01,.31,1.45,.53c.44,.22,.8,.52,1.06,.89,.26,.38,.4,.87,.4,1.49,0,.53-.14,1.02-.43,1.48s-.73,.83-1.34,1.11c-.61,.28-1.39,.42-2.33,.42Z"/>
    <path class="cls-1" d="M169.4,222.94c-1.43,0-2.56-.42-3.39-1.25-.82-.83-1.23-2.09-1.23-3.77v-6.81h.57v6.79c0,1.52,.35,2.66,1.06,3.4s1.7,1.12,2.99,1.12,2.29-.37,2.99-1.12c.71-.75,1.06-1.88,1.06-3.4v-6.79h.55v6.81c0,1.68-.41,2.94-1.24,3.77-.82,.83-1.95,1.25-3.37,1.25Z"/>
    <path class="cls-1" d="M178.21,222.88v-11.76h4.08c1.47,0,2.61,.34,3.44,1.03,.82,.69,1.23,1.64,1.23,2.86s-.41,2.19-1.23,2.88c-.82,.69-1.97,1.03-3.44,1.03h-3.51v3.95h-.57Zm.57-4.47h3.55c1.32,0,2.33-.29,3.03-.88,.7-.59,1.05-1.43,1.05-2.51s-.35-1.91-1.05-2.5c-.7-.59-1.71-.88-3.03-.88h-3.55v6.77Z"/>
    <path class="cls-1" d="M190.17,222.88v-11.76h4.08c1.47,0,2.61,.34,3.44,1.03,.82,.69,1.23,1.64,1.23,2.86s-.41,2.19-1.23,2.88c-.82,.69-1.97,1.03-3.44,1.03h-3.51v3.95h-.57Zm.57-4.47h3.55c1.32,0,2.33-.29,3.03-.88,.7-.59,1.05-1.43,1.05-2.51s-.35-1.91-1.05-2.5c-.7-.59-1.71-.88-3.03-.88h-3.55v6.77Z"/>
    <path class="cls-1" d="M202.14,222.88v-11.76h.57v11.24h6.89v.52h-7.46Z"/>
    <path class="cls-1" d="M211.91,222.88v-11.76h.57v11.76h-.57Z"/>
    <path class="cls-1" d="M216.79,222.88v-11.76h7.71v.52h-7.14v5.01h6.39v.52h-6.39v5.19h7.38v.52h-7.95Z"/>
    <path class="cls-1" d="M230.99,222.94c-.86,0-1.68-.15-2.45-.46-.77-.31-1.35-.7-1.76-1.17l.3-.4c.38,.43,.92,.79,1.62,1.08,.7,.3,1.45,.45,2.26,.45,1.23,0,2.13-.24,2.71-.73,.57-.49,.86-1.07,.86-1.76,0-.54-.13-.97-.4-1.29-.27-.32-.62-.58-1.07-.76s-.93-.34-1.45-.47c-.53-.13-1.05-.26-1.58-.4-.53-.13-1.01-.31-1.45-.54s-.8-.53-1.06-.91c-.26-.38-.4-.88-.4-1.51,0-.53,.14-1.02,.42-1.48s.72-.83,1.31-1.12c.59-.29,1.36-.43,2.29-.43,.65,0,1.28,.1,1.9,.29,.62,.19,1.14,.45,1.58,.79l-.25,.45c-.47-.35-.99-.61-1.56-.77s-1.12-.25-1.65-.25c-1.19,0-2.06,.25-2.63,.74-.57,.49-.85,1.09-.85,1.78,0,.55,.13,.99,.4,1.31,.27,.32,.62,.58,1.07,.77s.93,.35,1.45,.48,1.05,.26,1.58,.39,1.01,.31,1.45,.53c.44,.22,.8,.52,1.06,.89,.26,.38,.4,.87,.4,1.49,0,.53-.14,1.02-.43,1.48s-.73,.83-1.34,1.11c-.61,.28-1.39,.42-2.33,.42Z"/>
    <path class="cls-1" d="M242.41,222.88v-11.76h.57v11.24h6.89v.52h-7.46Z"/>
    <path class="cls-1" d="M254.43,222.88v-11.24h-4.32v-.52h9.19v.52h-4.32v11.24h-.55Z"/>
    <path class="cls-1" d="M261.52,222.88v-11.76h4.54c1.24,0,2.33,.25,3.27,.76,.94,.5,1.66,1.2,2.18,2.08,.52,.89,.78,1.9,.78,3.04s-.26,2.16-.78,3.04c-.52,.88-1.25,1.58-2.18,2.08-.94,.5-2.02,.76-3.27,.76h-4.54Zm.57-.52h3.93c1.15,0,2.16-.23,3.02-.69,.86-.46,1.52-1.09,1.98-1.9,.47-.81,.7-1.73,.7-2.77s-.23-1.97-.7-2.77c-.46-.81-1.13-1.44-1.98-1.9-.86-.46-1.86-.69-3.02-.69h-3.93v10.72Z"/>
  </g>
  <rect class="cls-1" x="275.32" y="216.76" width="18.03" height="1.68"/>
  <rect class="cls-1" x="-.29" y="216.76" width="18.02" height="1.68"/>
  <polygon class="cls-2" points="126.93 40.76 184.81 13.85 201.4 25.12 201.4 134 177.62 141.19 176.99 25.74 133.82 46.7 135.07 59.84 126.93 60.78 126.93 40.76"/>
  <polygon class="cls-1" points="208.91 13.85 221.11 1.02 221.11 144.63 142.89 174.04 70.62 146.82 81.88 137.13 144.98 159.97 207.35 135.57 208.91 13.85"/>
  <polygon class="cls-4" points="101.28 71.11 158.85 43.89 175.43 55.15 175.43 144.01 152.91 152.77 150.4 56.4 107.85 75.49 107.85 87.38 101.28 90.19 101.28 71.11"/>
  <polygon class="cls-3" points="70.62 129.61 80.32 133.06 80.32 106.46 124.12 85.19 124.12 147.77 142.58 156.21 148.53 154.02 148.53 83 131.32 72.99 70.62 99.58 70.62 129.61"/>
</svg>