<?xml version="1.0" encoding="UTF-8"?>
<svg id="Layer_1" data-name="Layer 1" xmlns="http://www.w3.org/2000/svg" viewBox="0 0 293.35 225.63">
  <defs>
    <style>
      .cls-1, .cls-2 {
        fill: #fff;
      }

      .cls-2, .cls-3, .cls-4 {
        fill-rule: evenodd;
      }

      .cls-3 {
        fill: #7d807d;
      }

      .cls-4, .cls-5 {
        fill: #ee3f23;
      }
    </style>
  </defs>
  <g>
    <polygon class="cls-1" points="10.83 192.62 6.21 192.62 6.21 187.36 1.2 187.36 1.2 202.2 6.21 202.2 6.21 196.73 10.83 196.73 10.83 202.2 15.83 202.2 15.83 187.36 10.83 187.36 10.83 192.62"/>
    <path class="cls-1" d="M23.12,187.36l-6.49,14.84h5.09l1-2.59h5.64l1,2.59h5.17l-6.49-14.84h-4.92Zm.98,8.65l1.44-3.73,1.44,3.73h-2.88Z"/>
    <polygon class="cls-1" points="49.58 195.91 46.99 187.36 42.39 187.36 39.66 195.8 37.07 187.36 31.92 187.36 36.67 202.2 42.03 202.2 44.55 194.28 46.95 202.2 52.31 202.2 57.06 187.36 52.31 187.36 49.58 195.91"/>
    <polygon class="cls-1" points="73.53 187.36 68.08 187.36 63.21 192.75 63.21 187.36 58.29 187.36 58.29 202.2 63.21 202.2 63.21 198.54 64.33 197.29 68.04 202.2 73.83 202.2 67.6 193.89 73.53 187.36"/>
    <rect class="cls-1" x="74.32" y="187.36" width="5" height="14.84"/>
    <polygon class="cls-1" points="91.3 194.11 85.66 187.36 81.55 187.36 81.55 202.2 86.42 202.2 86.42 195.46 92.06 202.2 96.17 202.2 96.17 187.36 91.3 187.36 91.3 194.11"/>
    <path class="cls-1" d="M110.4,195.59c-.3-.52-.69-.95-1.18-1.27s-1.02-.59-1.6-.78c-.58-.2-1.16-.35-1.75-.47-.59-.11-1.12-.22-1.61-.32-.49-.1-.88-.22-1.18-.37-.3-.15-.45-.35-.45-.6s.14-.47,.41-.66c.28-.18,.78-.28,1.52-.28,1.3,0,2.68,.37,4.13,1.1l1.51-3.62c-.78-.44-1.65-.76-2.63-.98-.98-.21-1.96-.32-2.97-.32-1.53,0-2.8,.23-3.83,.68-1.02,.45-1.79,1.06-2.31,1.81-.52,.76-.77,1.59-.77,2.51,0,.79,.15,1.45,.45,1.98,.3,.53,.69,.96,1.18,1.28,.49,.33,1.02,.59,1.61,.78,.59,.2,1.17,.36,1.75,.48,.58,.12,1.11,.23,1.6,.34,.49,.11,.88,.24,1.18,.39,.3,.16,.44,.37,.44,.64s-.14,.45-.43,.59c-.29,.14-.79,.21-1.49,.21-.82,0-1.66-.12-2.53-.37-.87-.25-1.66-.58-2.36-.99l-1.61,3.65c.75,.45,1.7,.82,2.86,1.1,1.16,.28,2.36,.42,3.6,.42,1.54,0,2.82-.23,3.84-.69s1.78-1.07,2.3-1.82c.52-.76,.77-1.59,.77-2.49,0-.78-.15-1.43-.45-1.95Z"/>
  </g>
  <path class="cls-5" d="M125.28,202.54c-1.19,0-2.29-.19-3.3-.56-1.01-.37-1.89-.91-2.63-1.6s-1.32-1.51-1.73-2.46c-.41-.95-.61-1.99-.61-3.14s.2-2.19,.61-3.14c.41-.95,.99-1.77,1.73-2.46,.74-.69,1.62-1.23,2.63-1.6,1.01-.37,2.11-.56,3.3-.56,1.46,0,2.75,.25,3.87,.76,1.12,.51,2.05,1.24,2.79,2.2l-3.16,2.82c-.44-.55-.92-.98-1.45-1.28-.53-.3-1.13-.46-1.79-.46-1.03,0-1.87,.34-2.51,1.01-.64,.67-.96,1.57-.96,2.7s.32,2.03,.96,2.7c.64,.67,1.48,1.01,2.51,1.01,.66,0,1.26-.15,1.79-.46s1.01-.73,1.45-1.28l3.16,2.82c-.73,.95-1.66,1.68-2.79,2.19-1.12,.52-2.41,.77-3.87,.77Z"/>
  <g>
    <path class="cls-5" d="M139.83,202.54c-1.2,0-2.31-.19-3.34-.57-1.02-.38-1.91-.92-2.66-1.62-.75-.7-1.33-1.52-1.75-2.47-.42-.95-.63-1.98-.63-3.1s.21-2.17,.63-3.11c.42-.94,1-1.76,1.75-2.46,.75-.7,1.64-1.24,2.66-1.62,1.02-.38,2.14-.57,3.34-.57s2.33,.19,3.35,.57,1.9,.92,2.65,1.62c.75,.7,1.33,1.52,1.75,2.46,.42,.94,.63,1.97,.63,3.11s-.21,2.15-.63,3.1c-.42,.95-1,1.77-1.75,2.47-.75,.7-1.63,1.24-2.65,1.62-1.02,.38-2.13,.57-3.35,.57Zm0-4.05c.62,0,1.18-.15,1.69-.44,.5-.3,.9-.72,1.2-1.28,.3-.56,.44-1.22,.44-1.98s-.15-1.44-.44-1.99c-.3-.55-.7-.98-1.2-1.27-.5-.3-1.06-.45-1.69-.45s-1.17,.15-1.67,.45c-.51,.3-.91,.72-1.21,1.27-.3,.55-.44,1.22-.44,1.99s.15,1.42,.44,1.98c.3,.56,.7,.99,1.21,1.28,.51,.3,1.07,.44,1.67,.44Z"/>
    <path class="cls-5" d="M149.64,202.2v-14.84h4.11l5.64,6.74v-6.74h4.88v14.84h-4.11l-5.64-6.74v6.74h-4.88Z"/>
    <path class="cls-5" d="M171.84,202.54c-1.24,0-2.45-.14-3.6-.42-1.16-.28-2.11-.65-2.86-1.1l1.61-3.65c.71,.41,1.49,.74,2.36,.99s1.71,.37,2.53,.37c.71,0,1.2-.07,1.49-.21,.29-.14,.43-.34,.43-.59,0-.27-.15-.48-.44-.64-.3-.16-.69-.29-1.18-.39-.49-.11-1.02-.22-1.6-.34-.58-.12-1.16-.28-1.75-.48-.59-.2-1.12-.46-1.61-.78-.49-.32-.88-.75-1.18-1.28-.3-.53-.44-1.19-.44-1.98,0-.92,.26-1.76,.77-2.51,.52-.76,1.29-1.36,2.31-1.81,1.02-.45,2.3-.68,3.83-.68,1,0,1.99,.11,2.97,.32,.98,.21,1.85,.54,2.63,.98l-1.51,3.62c-1.46-.73-2.83-1.1-4.13-1.1-.73,0-1.24,.09-1.52,.28s-.41,.4-.41,.66,.15,.46,.44,.6c.3,.15,.69,.27,1.18,.37,.49,.1,1.02,.21,1.61,.32,.59,.11,1.17,.27,1.75,.47,.58,.2,1.11,.46,1.6,.78,.49,.33,.88,.75,1.18,1.27,.3,.52,.45,1.17,.45,1.95,0,.9-.26,1.73-.77,2.49s-1.28,1.36-2.3,1.82-2.3,.69-3.84,.69Z"/>
    <path class="cls-5" d="M183.07,202.2v-10.96h-4.35v-3.88h13.7v3.88h-4.35v10.96h-5Z"/>
    <path class="cls-5" d="M193.33,202.2v-14.84h6.93c2.28,0,4.01,.5,5.19,1.51,1.19,1,1.78,2.37,1.78,4.09,0,1.07-.24,2.01-.73,2.8-.49,.79-1.18,1.41-2.07,1.87l3.12,4.58h-5.34l-2.52-3.73h-1.36v3.73h-5Zm5-7.5h1.82c.69,0,1.21-.16,1.54-.47,.33-.31,.5-.73,.5-1.27s-.17-.96-.5-1.27c-.33-.31-.84-.47-1.54-.47h-1.82v3.48Z"/>
    <path class="cls-5" d="M215.85,202.54c-2.28,0-4.05-.61-5.32-1.84-1.27-1.23-1.91-2.95-1.91-5.17v-8.16h5v8.01c0,1.13,.2,1.93,.61,2.41,.41,.47,.96,.71,1.65,.71s1.26-.24,1.66-.71c.4-.47,.6-1.28,.6-2.41v-8.01h4.92v8.16c0,2.22-.64,3.94-1.91,5.17-1.27,1.23-3.05,1.84-5.32,1.84Z"/>
    <path class="cls-5" d="M232.66,202.54c-1.19,0-2.29-.19-3.3-.56-1.01-.37-1.89-.91-2.63-1.6-.74-.69-1.32-1.51-1.73-2.46-.41-.95-.62-1.99-.62-3.14s.2-2.19,.62-3.14c.41-.95,.99-1.77,1.73-2.46,.74-.69,1.62-1.23,2.63-1.6,1.01-.37,2.11-.56,3.3-.56,1.46,0,2.75,.25,3.87,.76s2.05,1.24,2.79,2.2l-3.16,2.82c-.44-.55-.92-.98-1.45-1.28-.53-.3-1.13-.46-1.79-.46-1.03,0-1.87,.34-2.51,1.01-.64,.67-.97,1.57-.97,2.7s.32,2.03,.97,2.7c.64,.67,1.48,1.01,2.51,1.01,.66,0,1.26-.15,1.79-.46s1.01-.73,1.45-1.28l3.16,2.82c-.74,.95-1.66,1.68-2.79,2.19-1.12,.52-2.41,.77-3.87,.77Z"/>
    <path class="cls-5" d="M243.45,202.2v-10.96h-4.35v-3.88h13.7v3.88h-4.35v10.96h-5Z"/>
    <path class="cls-5" d="M253.71,202.2v-14.84h5v14.84h-5Z"/>
    <path class="cls-5" d="M268.53,202.54c-1.2,0-2.31-.19-3.34-.57-1.02-.38-1.91-.92-2.66-1.62s-1.33-1.52-1.75-2.47c-.42-.95-.63-1.98-.63-3.1s.21-2.17,.63-3.11c.42-.94,1-1.76,1.75-2.46s1.64-1.24,2.66-1.62,2.14-.57,3.34-.57,2.33,.19,3.35,.57,1.9,.92,2.65,1.62c.75,.7,1.33,1.52,1.75,2.46s.63,1.97,.63,3.11-.21,2.15-.63,3.1-1,1.77-1.75,2.47c-.75,.7-1.63,1.24-2.65,1.62-1.02,.38-2.13,.57-3.35,.57Zm0-4.05c.62,0,1.18-.15,1.69-.44,.5-.3,.9-.72,1.2-1.28,.3-.56,.45-1.22,.45-1.98s-.15-1.44-.45-1.99c-.3-.55-.7-.98-1.2-1.27-.5-.3-1.06-.45-1.69-.45s-1.17,.15-1.68,.45c-.51,.3-.91,.72-1.21,1.27-.3,.55-.45,1.22-.45,1.99s.15,1.42,.45,1.98c.3,.56,.7,.99,1.21,1.28,.51,.3,1.07,.44,1.68,.44Z"/>
    <path class="cls-5" d="M278.34,202.2v-14.84h4.11l5.64,6.74v-6.74h4.88v14.84h-4.11l-5.64-6.74v6.74h-4.88Z"/>
  </g>
  <g>
    <path class="cls-1" d="M22.5,223.9l5.44-11.75h.55l5.44,11.75h-.62l-1.58-3.44h-7.03l-1.58,3.44h-.62Zm2.43-3.93h6.58l-3.29-7.17-3.29,7.17Z"/>
    <path class="cls-1" d="M36.22,223.9v-11.75h.47l8.34,10.73v-10.73h.57v11.75h-.47l-8.34-10.73v10.73h-.57Z"/>
    <path class="cls-1" d="M49.9,223.9v-11.75h4.53c1.24,0,2.33,.25,3.27,.76,.93,.5,1.66,1.2,2.18,2.08,.52,.88,.78,1.9,.78,3.04s-.26,2.15-.78,3.04c-.52,.88-1.25,1.58-2.18,2.08-.93,.5-2.02,.76-3.27,.76h-4.53Zm.57-.52h3.93c1.15,0,2.16-.23,3.01-.69s1.52-1.09,1.98-1.9c.46-.81,.7-1.73,.7-2.77s-.23-1.96-.7-2.77c-.46-.81-1.12-1.44-1.98-1.9s-1.86-.69-3.01-.69h-3.93v10.71Z"/>
    <path class="cls-1" d="M72.93,223.97c-.87,0-1.68-.15-2.43-.44-.74-.3-1.39-.71-1.95-1.25s-.98-1.17-1.28-1.89c-.3-.72-.45-1.51-.45-2.36s.15-1.64,.45-2.36c.3-.72,.73-1.35,1.28-1.89,.55-.54,1.2-.95,1.95-1.25,.74-.3,1.55-.44,2.43-.44s1.6,.13,2.31,.39c.71,.26,1.32,.64,1.82,1.16l-.34,.39c-.54-.51-1.12-.88-1.75-1.09-.63-.21-1.3-.32-2.03-.32-.79,0-1.53,.14-2.21,.41-.68,.27-1.27,.66-1.77,1.15-.5,.49-.89,1.07-1.17,1.72-.27,.65-.41,1.37-.41,2.14s.14,1.49,.41,2.14c.27,.65,.66,1.23,1.17,1.72,.5,.49,1.09,.88,1.77,1.15,.68,.27,1.41,.41,2.21,.41,.67,0,1.31-.09,1.91-.29,.6-.19,1.15-.5,1.65-.94v-4.11h.54v4.35c-.51,.5-1.13,.88-1.84,1.13s-1.47,.38-2.27,.38Z"/>
    <path class="cls-1" d="M81.01,223.9v-11.75h7.71v.52h-7.13v5h6.38v.52h-6.38v5.19h7.37v.52h-7.94Z"/>
    <path class="cls-1" d="M92.22,223.9v-11.75h.47l8.34,10.73v-10.73h.57v11.75h-.47l-8.34-10.73v10.73h-.57Z"/>
    <path class="cls-1" d="M105.9,223.9v-11.75h7.71v.52h-7.13v5h6.38v.52h-6.38v5.19h7.37v.52h-7.94Z"/>
    <path class="cls-1" d="M117.12,223.9v-11.75h4.08c1.47,0,2.61,.34,3.43,1.03s1.23,1.64,1.23,2.86c0,.95-.25,1.74-.74,2.37-.49,.63-1.19,1.06-2.08,1.31l3.01,4.18h-.67l-2.9-4.05c-.39,.07-.82,.1-1.28,.1h-3.51v3.95h-.57Zm.57-4.47h3.54c1.32,0,2.33-.29,3.03-.88,.7-.59,1.05-1.42,1.05-2.51s-.35-1.91-1.05-2.49c-.7-.59-1.71-.88-3.03-.88h-3.54v6.77Z"/>
    <path class="cls-1" d="M127.14,223.9l5.44-11.75h.55l5.44,11.75h-.62l-1.58-3.44h-7.03l-1.58,3.44h-.62Zm2.43-3.93h6.58l-3.29-7.17-3.29,7.17Z"/>
    <path class="cls-1" d="M140.85,223.9v-11.75h.57v11.23h6.88v.52h-7.45Z"/>
    <path class="cls-1" d="M157.84,223.97c-.86,0-1.68-.15-2.44-.46-.77-.31-1.35-.7-1.75-1.17l.3-.4c.38,.43,.92,.79,1.62,1.08,.7,.3,1.45,.44,2.26,.44,1.23,0,2.13-.24,2.7-.73,.57-.49,.86-1.07,.86-1.75,0-.54-.13-.97-.4-1.29-.27-.32-.62-.58-1.07-.76s-.93-.34-1.45-.47c-.53-.13-1.05-.26-1.58-.39-.53-.13-1.01-.31-1.45-.54s-.79-.53-1.06-.91c-.26-.38-.39-.88-.39-1.51,0-.53,.14-1.02,.42-1.48s.72-.83,1.31-1.12c.59-.28,1.35-.43,2.28-.43,.65,0,1.28,.1,1.9,.28,.62,.19,1.14,.45,1.58,.79l-.25,.45c-.47-.35-.99-.6-1.56-.77s-1.12-.25-1.65-.25c-1.19,0-2.06,.25-2.63,.74-.57,.49-.85,1.09-.85,1.78,0,.55,.13,.99,.4,1.31,.27,.32,.62,.58,1.07,.77s.93,.35,1.45,.48,1.05,.26,1.58,.39,1.01,.31,1.45,.53c.44,.22,.79,.51,1.06,.89,.26,.38,.39,.87,.39,1.49,0,.53-.14,1.02-.43,1.48s-.73,.83-1.34,1.11c-.61,.28-1.38,.42-2.33,.42Z"/>
    <path class="cls-1" d="M169.52,223.97c-1.43,0-2.56-.42-3.38-1.25-.82-.83-1.23-2.09-1.23-3.77v-6.8h.57v6.78c0,1.52,.35,2.65,1.06,3.4s1.7,1.12,2.99,1.12,2.28-.37,2.99-1.12c.7-.74,1.06-1.88,1.06-3.4v-6.78h.55v6.8c0,1.68-.41,2.93-1.23,3.77-.82,.83-1.94,1.25-3.37,1.25Z"/>
    <path class="cls-1" d="M178.32,223.9v-11.75h4.08c1.47,0,2.61,.34,3.43,1.03,.82,.69,1.23,1.64,1.23,2.86s-.41,2.19-1.23,2.88c-.82,.69-1.97,1.03-3.43,1.03h-3.51v3.95h-.57Zm.57-4.47h3.54c1.32,0,2.33-.29,3.03-.88,.7-.59,1.05-1.42,1.05-2.51s-.35-1.91-1.05-2.49c-.7-.59-1.71-.88-3.03-.88h-3.54v6.77Z"/>
    <path class="cls-1" d="M190.27,223.9v-11.75h4.08c1.47,0,2.61,.34,3.43,1.03,.82,.69,1.23,1.64,1.23,2.86s-.41,2.19-1.23,2.88c-.82,.69-1.97,1.03-3.43,1.03h-3.51v3.95h-.57Zm.57-4.47h3.54c1.32,0,2.33-.29,3.03-.88,.7-.59,1.05-1.42,1.05-2.51s-.35-1.91-1.05-2.49c-.7-.59-1.71-.88-3.03-.88h-3.54v6.77Z"/>
    <path class="cls-1" d="M202.23,223.9v-11.75h.57v11.23h6.88v.52h-7.45Z"/>
    <path class="cls-1" d="M211.99,223.9v-11.75h.57v11.75h-.57Z"/>
    <path class="cls-1" d="M216.86,223.9v-11.75h7.7v.52h-7.13v5h6.38v.52h-6.38v5.19h7.37v.52h-7.94Z"/>
    <path class="cls-1" d="M231.05,223.97c-.86,0-1.68-.15-2.44-.46-.77-.31-1.35-.7-1.75-1.17l.3-.4c.38,.43,.92,.79,1.62,1.08,.7,.3,1.45,.44,2.26,.44,1.23,0,2.13-.24,2.7-.73,.57-.49,.86-1.07,.86-1.75,0-.54-.13-.97-.4-1.29-.27-.32-.62-.58-1.07-.76s-.93-.34-1.45-.47c-.53-.13-1.05-.26-1.58-.39-.53-.13-1.01-.31-1.45-.54s-.79-.53-1.06-.91c-.26-.38-.39-.88-.39-1.51,0-.53,.14-1.02,.42-1.48s.72-.83,1.31-1.12c.59-.28,1.35-.43,2.28-.43,.65,0,1.28,.1,1.9,.28,.62,.19,1.14,.45,1.58,.79l-.25,.45c-.47-.35-.99-.6-1.56-.77s-1.12-.25-1.65-.25c-1.19,0-2.06,.25-2.63,.74-.57,.49-.85,1.09-.85,1.78,0,.55,.13,.99,.4,1.31,.27,.32,.62,.58,1.07,.77s.93,.35,1.45,.48,1.05,.26,1.58,.39,1.01,.31,1.45,.53c.44,.22,.79,.51,1.06,.89,.26,.38,.39,.87,.39,1.49,0,.53-.14,1.02-.43,1.48s-.73,.83-1.34,1.11c-.61,.28-1.38,.42-2.33,.42Z"/>
    <path class="cls-1" d="M242.46,223.9v-11.75h.57v11.23h6.88v.52h-7.45Z"/>
    <path class="cls-1" d="M254.47,223.9v-11.23h-4.31v-.52h9.18v.52h-4.31v11.23h-.55Z"/>
    <path class="cls-1" d="M261.55,223.9v-11.75h4.53c1.24,0,2.33,.25,3.27,.76,.93,.5,1.66,1.2,2.18,2.08,.52,.88,.78,1.9,.78,3.04s-.26,2.15-.78,3.04c-.52,.88-1.25,1.58-2.18,2.08-.93,.5-2.02,.76-3.27,.76h-4.53Zm.57-.52h3.93c1.15,0,2.16-.23,3.01-.69,.86-.46,1.52-1.09,1.98-1.9,.46-.81,.7-1.73,.7-2.77s-.23-1.96-.7-2.77c-.46-.81-1.12-1.44-1.98-1.9-.86-.46-1.86-.69-3.01-.69h-3.93v10.71Z"/>
  </g>
  <rect class="cls-1" x="275.34" y="217.79" width="18.01" height="1.68"/>
  <rect class="cls-1" y="217.79" width="18.01" height="1.68"/>
  <polygon class="cls-2" points="127.1 41.96 184.92 15.08 201.49 26.33 201.49 135.11 177.74 142.3 177.11 26.96 133.98 47.9 135.23 61.03 127.1 61.96 127.1 41.96"/>
  <polygon class="cls-1" points="208.99 15.08 221.19 2.27 221.19 145.73 143.04 175.11 70.84 147.92 82.09 138.24 145.13 161.05 207.43 136.68 208.99 15.08"/>
  <polygon class="cls-4" points="101.46 72.28 158.98 45.09 175.55 56.34 175.55 145.11 153.04 153.86 150.54 57.59 108.03 76.66 108.03 88.53 101.46 91.35 101.46 72.28"/>
  <polygon class="cls-3" points="70.84 130.73 80.53 134.17 80.53 107.6 124.28 86.35 124.28 148.87 142.72 157.3 148.67 155.11 148.67 84.16 131.48 74.16 70.84 100.72 70.84 130.73"/>
</svg>