<?xml version="1.0" encoding="UTF-8"?>
<svg id="Layer_1" data-name="Layer 1" xmlns="http://www.w3.org/2000/svg" viewBox="0 0 293.35 225.63">
  <defs>
    <style>
      .cls-1, .cls-2 {
        fill: #fff;
      }

      .cls-2, .cls-3, .cls-4 {
        fill-rule: evenodd;
      }

      .cls-3 {
        fill: #7d807d;
      }

      .cls-4 {
        fill: #ee3f23;
      }
    </style>
  </defs>
  <polygon class="cls-2" points="127.76 61.81 185.58 34.93 202.15 46.18 202.15 154.96 178.4 162.15 177.77 46.81 134.64 67.75 135.89 80.88 127.76 81.81 127.76 61.81"/>
  <polygon class="cls-1" points="209.66 34.93 221.85 22.12 221.85 165.58 143.7 194.96 71.5 167.77 82.75 158.09 145.79 180.9 208.09 156.52 209.66 34.93"/>
  <polygon class="cls-4" points="102.13 92.13 159.65 64.94 176.21 76.19 176.21 164.96 153.71 173.71 151.21 77.44 108.69 96.51 108.69 108.38 102.13 111.2 102.13 92.13"/>
  <polygon class="cls-3" points="71.5 150.58 81.19 154.02 81.19 127.45 124.95 106.2 124.95 168.72 143.39 177.15 149.33 174.96 149.33 104.01 132.14 94.01 71.5 120.57 71.5 150.58"/>
</svg>